<?xml version="1.0" encoding="utf-8" ?>
<svg baseProfile="full" height="57.5mm" version="1.1" viewBox="0,0,306.20000000000005,57.5" width="306.20000000000005mm" xmlns="http://www.w3.org/2000/svg" xmlns:ev="http://www.w3.org/2001/xml-events" xmlns:xlink="http://www.w3.org/1999/xlink"><defs /><rect fill="#FFFFFF" height="57.5" width="306.20000000000005" x="0" y="0" /><text fill="#000000" style="font-size:6px; font-family:Arial; font-weight:bold;" x="10" y="10" /><text fill="#000000" style="font-size:3px; font-family:Arial;" x="10" y="14.4">2024: 310 hours</text><text fill="#000000" style="font-size:2.5px; font-family:Arial" x="10" y="18.3">Jan</text><rect fill="#ace7ae" height="4" rx="1" ry="1" width="4" x="10" y="19.7"><title>2024-01-01 0.03 mins</title></rect><rect fill="#abe7ad" height="4" rx="1" ry="1" width="4" x="10" y="25.1"><title>2024-01-02 7.65 mins</title></rect><rect fill="#a8e5aa" height="4" rx="1" ry="1" width="4" x="10" y="30.5"><title>2024-01-03 29.97 mins</title></rect><rect fill="#abe7ad" height="4" rx="1" ry="1" width="4" x="10" y="35.9"><title>2024-01-04 4.93 mins</title></rect><rect fill="#66be6b" height="4" rx="1" ry="1" width="4" x="10" y="41.300000000000004"><title>2024-01-05 82.47 mins</title></rect><rect fill="#EBEDF0" height="4" rx="1" ry="1" width="4" x="10" y="46.699999999999996"><title>2024-01-06</title></rect><rect fill="#a7e5a9" height="4" rx="1" ry="1" width="4" x="10" y="52.1"><title>2024-01-07 38.35 mins</title></rect><rect fill="#66be6b" height="4" rx="1" ry="1" width="4" x="15.4" y="19.7"><title>2024-01-08 75.03 mins</title></rect><rect fill="#67bf6c" height="4" rx="1" ry="1" width="4" x="15.4" y="25.1"><title>2024-01-09 58.47 mins</title></rect><rect fill="#66be6b" height="4" rx="1" ry="1" width="4" x="15.4" y="30.5"><title>2024-01-10 89.93 mins</title></rect><rect fill="#66bd6a" height="4" rx="1" ry="1" width="4" x="15.4" y="35.9"><title>2024-01-11 100.2 mins</title></rect><rect fill="#66be6b" height="4" rx="1" ry="1" width="4" x="15.4" y="41.300000000000004"><title>2024-01-12 84.75 mins</title></rect><rect fill="#67bf6c" height="4" rx="1" ry="1" width="4" x="15.4" y="46.699999999999996"><title>2024-01-13 44.53 mins</title></rect><rect fill="#EBEDF0" height="4" rx="1" ry="1" width="4" x="15.4" y="52.1"><title>2024-01-14</title></rect><rect fill="#65bd6a" height="4" rx="1" ry="1" width="4" x="20.8" y="19.7"><title>2024-01-15 102.35 mins</title></rect><rect fill="#a7e5a9" height="4" rx="1" ry="1" width="4" x="20.8" y="25.1"><title>2024-01-16 36.9 mins</title></rect><rect fill="#a7e5aa" height="4" rx="1" ry="1" width="4" x="20.8" y="30.5"><title>2024-01-17 32.25 mins</title></rect><rect fill="#a8e5aa" height="4" rx="1" ry="1" width="4" x="20.8" y="35.9"><title>2024-01-18 26.07 mins</title></rect><rect fill="#549F57" height="4" rx="1" ry="1" width="4" x="20.8" y="41.300000000000004"><title>2024-01-19 139.43 mins</title></rect><rect fill="#66bd6a" height="4" rx="1" ry="1" width="4" x="20.8" y="46.699999999999996"><title>2024-01-20 99.85 mins</title></rect><rect fill="#67bf6c" height="4" rx="1" ry="1" width="4" x="20.8" y="52.1"><title>2024-01-21 55.43 mins</title></rect><rect fill="#549F57" height="4" rx="1" ry="1" width="4" x="26.200000000000003" y="19.7"><title>2024-01-22 126.62 mins</title></rect><rect fill="#aae6ac" height="4" rx="1" ry="1" width="4" x="26.200000000000003" y="25.1"><title>2024-01-23 17.6 mins</title></rect><rect fill="#aae6ac" height="4" rx="1" ry="1" width="4" x="26.200000000000003" y="30.5"><title>2024-01-24 16.9 mins</title></rect><rect fill="#66be6b" height="4" rx="1" ry="1" width="4" x="26.200000000000003" y="35.9"><title>2024-01-25 71.5 mins</title></rect><rect fill="#549F57" height="4" rx="1" ry="1" width="4" x="26.200000000000003" y="41.300000000000004"><title>2024-01-26 118.42 mins</title></rect><rect fill="#aae6ac" height="4" rx="1" ry="1" width="4" x="26.200000000000003" y="46.699999999999996"><title>2024-01-27 11.9 mins</title></rect><rect fill="#549F57" height="4" rx="1" ry="1" width="4" x="26.200000000000003" y="52.1"><title>2024-01-28 156.73 mins</title></rect><rect fill="#549F57" height="4" rx="1" ry="1" width="4" x="31.6" y="19.7"><title>2024-01-29 175.08 mins</title></rect><rect fill="#66be6a" height="4" rx="1" ry="1" width="4" x="31.6" y="25.1"><title>2024-01-30 95.77 mins</title></rect><rect fill="#549F57" height="4" rx="1" ry="1" width="4" x="31.6" y="30.5"><title>2024-01-31 139.83 mins</title></rect><rect fill="#a7e5a9" height="4" rx="1" ry="1" width="4" x="31.6" y="35.9"><title>2024-02-01 35.58 mins</title></rect><rect fill="#a6e4a9" height="4" rx="1" ry="1" width="4" x="31.6" y="41.300000000000004"><title>2024-02-02 39.6 mins</title></rect><rect fill="#EBEDF0" height="4" rx="1" ry="1" width="4" x="31.6" y="46.699999999999996"><title>2024-02-03</title></rect><rect fill="#a9e6ab" height="4" rx="1" ry="1" width="4" x="31.6" y="52.1"><title>2024-02-04 21.48 mins</title></rect><text fill="#000000" style="font-size:2.5px; font-family:Arial" x="37.0" y="18.3">Feb</text><rect fill="#a9e6ab" height="4" rx="1" ry="1" width="4" x="37.0" y="19.7"><title>2024-02-05 20.15 mins</title></rect><rect fill="#549F57" height="4" rx="1" ry="1" width="4" x="37.0" y="25.1"><title>2024-02-06 155.12 mins</title></rect><rect fill="#EBEDF0" height="4" rx="1" ry="1" width="4" x="37.0" y="30.5"><title>2024-02-07</title></rect><rect fill="#EBEDF0" height="4" rx="1" ry="1" width="4" x="37.0" y="35.9"><title>2024-02-08</title></rect><rect fill="#67bf6c" height="4" rx="1" ry="1" width="4" x="37.0" y="41.300000000000004"><title>2024-02-09 47.92 mins</title></rect><rect fill="#abe6ad" height="4" rx="1" ry="1" width="4" x="37.0" y="46.699999999999996"><title>2024-02-10 10.38 mins</title></rect><rect fill="#ace7ae" height="4" rx="1" ry="1" width="4" x="37.0" y="52.1"><title>2024-02-11 2.47 mins</title></rect><rect fill="#EBEDF0" height="4" rx="1" ry="1" width="4" x="42.4" y="19.7"><title>2024-02-12</title></rect><rect fill="#EBEDF0" height="4" rx="1" ry="1" width="4" x="42.4" y="25.1"><title>2024-02-13</title></rect><rect fill="#EBEDF0" height="4" rx="1" ry="1" width="4" x="42.4" y="30.5"><title>2024-02-14</title></rect><rect fill="#EBEDF0" height="4" rx="1" ry="1" width="4" x="42.4" y="35.9"><title>2024-02-15</title></rect><rect fill="#EBEDF0" height="4" rx="1" ry="1" width="4" x="42.4" y="41.300000000000004"><title>2024-02-16</title></rect><rect fill="#ace7ae" height="4" rx="1" ry="1" width="4" x="42.4" y="46.699999999999996"><title>2024-02-17 3.27 mins</title></rect><rect fill="#67bf6c" height="4" rx="1" ry="1" width="4" x="42.4" y="52.1"><title>2024-02-18 58.13 mins</title></rect><rect fill="#66be6b" height="4" rx="1" ry="1" width="4" x="47.8" y="19.7"><title>2024-02-19 83.63 mins</title></rect><rect fill="#549F57" height="4" rx="1" ry="1" width="4" x="47.8" y="25.1"><title>2024-02-20 113.03 mins</title></rect><rect fill="#67bf6c" height="4" rx="1" ry="1" width="4" x="47.8" y="30.5"><title>2024-02-21 62.78 mins</title></rect><rect fill="#65bd6a" height="4" rx="1" ry="1" width="4" x="47.8" y="35.9"><title>2024-02-22 100.27 mins</title></rect><rect fill="#549F57" height="4" rx="1" ry="1" width="4" x="47.8" y="41.300000000000004"><title>2024-02-23 327.73 mins</title></rect><rect fill="#549F57" height="4" rx="1" ry="1" width="4" x="47.8" y="46.699999999999996"><title>2024-02-24 298.72 mins</title></rect><rect fill="#549F57" height="4" rx="1" ry="1" width="4" x="47.8" y="52.1"><title>2024-02-25 170.83 mins</title></rect><rect fill="#549F57" height="4" rx="1" ry="1" width="4" x="53.199999999999996" y="19.7"><title>2024-02-26 107.05 mins</title></rect><rect fill="#66be6a" height="4" rx="1" ry="1" width="4" x="53.199999999999996" y="25.1"><title>2024-02-27 97.15 mins</title></rect><rect fill="#66be6b" height="4" rx="1" ry="1" width="4" x="53.199999999999996" y="30.5"><title>2024-02-28 91.15 mins</title></rect><rect fill="#ace7ae" height="4" rx="1" ry="1" width="4" x="53.199999999999996" y="35.9"><title>2024-02-29 0.33 mins</title></rect><rect fill="#66be6b" height="4" rx="1" ry="1" width="4" x="53.199999999999996" y="41.300000000000004"><title>2024-03-01 92.1 mins</title></rect><rect fill="#aae6ac" height="4" rx="1" ry="1" width="4" x="53.199999999999996" y="46.699999999999996"><title>2024-03-02 12.6 mins</title></rect><rect fill="#aae6ac" height="4" rx="1" ry="1" width="4" x="53.199999999999996" y="52.1"><title>2024-03-03 12.27 mins</title></rect><text fill="#000000" style="font-size:2.5px; font-family:Arial" x="58.599999999999994" y="18.3">Mar</text><rect fill="#67bf6c" height="4" rx="1" ry="1" width="4" x="58.599999999999994" y="19.7"><title>2024-03-04 54.08 mins</title></rect><rect fill="#549F57" height="4" rx="1" ry="1" width="4" x="58.599999999999994" y="25.1"><title>2024-03-05 305.58 mins</title></rect><rect fill="#ace7ae" height="4" rx="1" ry="1" width="4" x="58.599999999999994" y="30.5"><title>2024-03-06 3.45 mins</title></rect><rect fill="#a7e5a9" height="4" rx="1" ry="1" width="4" x="58.599999999999994" y="35.9"><title>2024-03-07 35.32 mins</title></rect><rect fill="#549F57" height="4" rx="1" ry="1" width="4" x="58.599999999999994" y="41.300000000000004"><title>2024-03-08 201.05 mins</title></rect><rect fill="#67bf6c" height="4" rx="1" ry="1" width="4" x="58.599999999999994" y="46.699999999999996"><title>2024-03-09 56.35 mins</title></rect><rect fill="#a9e6ab" height="4" rx="1" ry="1" width="4" x="58.599999999999994" y="52.1"><title>2024-03-10 21.23 mins</title></rect><rect fill="#ace7ae" height="4" rx="1" ry="1" width="4" x="63.99999999999999" y="19.7"><title>2024-03-11 0.9 mins</title></rect><rect fill="#ace7ae" height="4" rx="1" ry="1" width="4" x="63.99999999999999" y="25.1"><title>2024-03-12 0.45 mins</title></rect><rect fill="#66be6b" height="4" rx="1" ry="1" width="4" x="63.99999999999999" y="30.5"><title>2024-03-13 77.1 mins</title></rect><rect fill="#66be6a" height="4" rx="1" ry="1" width="4" x="63.99999999999999" y="35.9"><title>2024-03-14 98.05 mins</title></rect><rect fill="#549F57" height="4" rx="1" ry="1" width="4" x="63.99999999999999" y="41.300000000000004"><title>2024-03-15 146.87 mins</title></rect><rect fill="#549F57" height="4" rx="1" ry="1" width="4" x="63.99999999999999" y="46.699999999999996"><title>2024-03-16 113.6 mins</title></rect><rect fill="#549F57" height="4" rx="1" ry="1" width="4" x="63.99999999999999" y="52.1"><title>2024-03-17 175.62 mins</title></rect><rect fill="#549F57" height="4" rx="1" ry="1" width="4" x="69.39999999999999" y="19.7"><title>2024-03-18 306.63 mins</title></rect><rect fill="#549F57" height="4" rx="1" ry="1" width="4" x="69.39999999999999" y="25.1"><title>2024-03-19 152.98 mins</title></rect><rect fill="#549F57" height="4" rx="1" ry="1" width="4" x="69.39999999999999" y="30.5"><title>2024-03-20 212.48 mins</title></rect><rect fill="#549F57" height="4" rx="1" ry="1" width="4" x="69.39999999999999" y="35.9"><title>2024-03-21 189.6 mins</title></rect><rect fill="#a6e4a8" height="4" rx="1" ry="1" width="4" x="69.39999999999999" y="41.300000000000004"><title>2024-03-22 41.82 mins</title></rect><rect fill="#66be6b" height="4" rx="1" ry="1" width="4" x="69.39999999999999" y="46.699999999999996"><title>2024-03-23 74.98 mins</title></rect><rect fill="#67bf6c" height="4" rx="1" ry="1" width="4" x="69.39999999999999" y="52.1"><title>2024-03-24 58.83 mins</title></rect><rect fill="#a9e5ab" height="4" rx="1" ry="1" width="4" x="74.8" y="19.7"><title>2024-03-25 23.97 mins</title></rect><rect fill="#66be6b" height="4" rx="1" ry="1" width="4" x="74.8" y="25.1"><title>2024-03-26 85.7 mins</title></rect><rect fill="#549F57" height="4" rx="1" ry="1" width="4" x="74.8" y="30.5"><title>2024-03-27 139.2 mins</title></rect><rect fill="#66be6b" height="4" rx="1" ry="1" width="4" x="74.8" y="35.9"><title>2024-03-28 89.02 mins</title></rect><rect fill="#a9e5ab" height="4" rx="1" ry="1" width="4" x="74.8" y="41.300000000000004"><title>2024-03-29 24.48 mins</title></rect><rect fill="#67bf6c" height="4" rx="1" ry="1" width="4" x="74.8" y="46.699999999999996"><title>2024-03-30 50.25 mins</title></rect><rect fill="#aae6ac" height="4" rx="1" ry="1" width="4" x="74.8" y="52.1"><title>2024-03-31 12.25 mins</title></rect><text fill="#000000" style="font-size:2.5px; font-family:Arial" x="80.2" y="18.3">Apr</text><rect fill="#a7e5a9" height="4" rx="1" ry="1" width="4" x="80.2" y="19.7"><title>2024-04-01 38.93 mins</title></rect><rect fill="#a8e5aa" height="4" rx="1" ry="1" width="4" x="80.2" y="25.1"><title>2024-04-02 29.57 mins</title></rect><rect fill="#67bf6c" height="4" rx="1" ry="1" width="4" x="80.2" y="30.5"><title>2024-04-03 57.1 mins</title></rect><rect fill="#EBEDF0" height="4" rx="1" ry="1" width="4" x="80.2" y="35.9"><title>2024-04-04</title></rect><rect fill="#abe6ad" height="4" rx="1" ry="1" width="4" x="80.2" y="41.300000000000004"><title>2024-04-05 8.27 mins</title></rect><rect fill="#a7e5a9" height="4" rx="1" ry="1" width="4" x="80.2" y="46.699999999999996"><title>2024-04-06 35.02 mins</title></rect><rect fill="#aae6ac" height="4" rx="1" ry="1" width="4" x="80.2" y="52.1"><title>2024-04-07 11.52 mins</title></rect><rect fill="#a7e5a9" height="4" rx="1" ry="1" width="4" x="85.60000000000001" y="19.7"><title>2024-04-08 35.13 mins</title></rect><rect fill="#549F57" height="4" rx="1" ry="1" width="4" x="85.60000000000001" y="25.1"><title>2024-04-09 105.8 mins</title></rect><rect fill="#a8e5aa" height="4" rx="1" ry="1" width="4" x="85.60000000000001" y="30.5"><title>2024-04-10 31.3 mins</title></rect><rect fill="#65bd6a" height="4" rx="1" ry="1" width="4" x="85.60000000000001" y="35.9"><title>2024-04-11 100.48 mins</title></rect><rect fill="#ace7ae" height="4" rx="1" ry="1" width="4" x="85.60000000000001" y="41.300000000000004"><title>2024-04-12 1.97 mins</title></rect><rect fill="#EBEDF0" height="4" rx="1" ry="1" width="4" x="85.60000000000001" y="46.699999999999996"><title>2024-04-13</title></rect><rect fill="#EBEDF0" height="4" rx="1" ry="1" width="4" x="85.60000000000001" y="52.1"><title>2024-04-14</title></rect><rect fill="#a7e5a9" height="4" rx="1" ry="1" width="4" x="91.00000000000001" y="19.7"><title>2024-04-15 34.3 mins</title></rect><rect fill="#ace7ae" height="4" rx="1" ry="1" width="4" x="91.00000000000001" y="25.1"><title>2024-04-16 0.1 mins</title></rect><rect fill="#549F57" height="4" rx="1" ry="1" width="4" x="91.00000000000001" y="30.5"><title>2024-04-17 118.68 mins</title></rect><rect fill="#549F57" height="4" rx="1" ry="1" width="4" x="91.00000000000001" y="35.9"><title>2024-04-18 163.47 mins</title></rect><rect fill="#549F57" height="4" rx="1" ry="1" width="4" x="91.00000000000001" y="41.300000000000004"><title>2024-04-19 114.03 mins</title></rect><rect fill="#ace7ae" height="4" rx="1" ry="1" width="4" x="91.00000000000001" y="46.699999999999996"><title>2024-04-20 2.33 mins</title></rect><rect fill="#abe6ad" height="4" rx="1" ry="1" width="4" x="91.00000000000001" y="52.1"><title>2024-04-21 10.15 mins</title></rect><rect fill="#a6e4a8" height="4" rx="1" ry="1" width="4" x="96.40000000000002" y="19.7"><title>2024-04-22 41.38 mins</title></rect><rect fill="#549F57" height="4" rx="1" ry="1" width="4" x="96.40000000000002" y="25.1"><title>2024-04-23 121.98 mins</title></rect><rect fill="#EBEDF0" height="4" rx="1" ry="1" width="4" x="96.40000000000002" y="30.5"><title>2024-04-24</title></rect><rect fill="#67bf6c" height="4" rx="1" ry="1" width="4" x="96.40000000000002" y="35.9"><title>2024-04-25 62.42 mins</title></rect><rect fill="#a7e5a9" height="4" rx="1" ry="1" width="4" x="96.40000000000002" y="41.300000000000004"><title>2024-04-26 33.8 mins</title></rect><rect fill="#EBEDF0" height="4" rx="1" ry="1" width="4" x="96.40000000000002" y="46.699999999999996"><title>2024-04-27</title></rect><rect fill="#67bf6c" height="4" rx="1" ry="1" width="4" x="96.40000000000002" y="52.1"><title>2024-04-28 55.05 mins</title></rect><rect fill="#65bd6a" height="4" rx="1" ry="1" width="4" x="101.80000000000003" y="19.7"><title>2024-04-29 104.13 mins</title></rect><rect fill="#a7e5a9" height="4" rx="1" ry="1" width="4" x="101.80000000000003" y="25.1"><title>2024-04-30 34.5 mins</title></rect><rect fill="#EBEDF0" height="4" rx="1" ry="1" width="4" x="101.80000000000003" y="30.5"><title>2024-05-01</title></rect><rect fill="#aae6ac" height="4" rx="1" ry="1" width="4" x="101.80000000000003" y="35.9"><title>2024-05-02 17.32 mins</title></rect><rect fill="#EBEDF0" height="4" rx="1" ry="1" width="4" x="101.80000000000003" y="41.300000000000004"><title>2024-05-03</title></rect><rect fill="#EBEDF0" height="4" rx="1" ry="1" width="4" x="101.80000000000003" y="46.699999999999996"><title>2024-05-04</title></rect><rect fill="#EBEDF0" height="4" rx="1" ry="1" width="4" x="101.80000000000003" y="52.1"><title>2024-05-05</title></rect><text fill="#000000" style="font-size:2.5px; font-family:Arial" x="107.20000000000003" y="18.3">May</text><rect fill="#ace7ae" height="4" rx="1" ry="1" width="4" x="107.20000000000003" y="19.7"><title>2024-05-06 0.23 mins</title></rect><rect fill="#a8e5aa" height="4" rx="1" ry="1" width="4" x="107.20000000000003" y="25.1"><title>2024-05-07 28.27 mins</title></rect><rect fill="#65bd6a" height="4" rx="1" ry="1" width="4" x="107.20000000000003" y="30.5"><title>2024-05-08 101.93 mins</title></rect><rect fill="#549F57" height="4" rx="1" ry="1" width="4" x="107.20000000000003" y="35.9"><title>2024-05-09 149.65 mins</title></rect><rect fill="#67bf6c" height="4" rx="1" ry="1" width="4" x="107.20000000000003" y="41.300000000000004"><title>2024-05-10 63.62 mins</title></rect><rect fill="#67bf6c" height="4" rx="1" ry="1" width="4" x="107.20000000000003" y="46.699999999999996"><title>2024-05-11 59.23 mins</title></rect><rect fill="#EBEDF0" height="4" rx="1" ry="1" width="4" x="107.20000000000003" y="52.1"><title>2024-05-12</title></rect><rect fill="#a9e6ab" height="4" rx="1" ry="1" width="4" x="112.60000000000004" y="19.7"><title>2024-05-13 18.52 mins</title></rect><rect fill="#67bf6c" height="4" rx="1" ry="1" width="4" x="112.60000000000004" y="25.1"><title>2024-05-14 50.47 mins</title></rect><rect fill="#549F57" height="4" rx="1" ry="1" width="4" x="112.60000000000004" y="30.5"><title>2024-05-15 107.6 mins</title></rect><rect fill="#67bf6c" height="4" rx="1" ry="1" width="4" x="112.60000000000004" y="35.9"><title>2024-05-16 67.48 mins</title></rect><rect fill="#549F57" height="4" rx="1" ry="1" width="4" x="112.60000000000004" y="41.300000000000004"><title>2024-05-17 243.0 mins</title></rect><rect fill="#ace7ae" height="4" rx="1" ry="1" width="4" x="112.60000000000004" y="46.699999999999996"><title>2024-05-18 3.12 mins</title></rect><rect fill="#aae6ac" height="4" rx="1" ry="1" width="4" x="112.60000000000004" y="52.1"><title>2024-05-19 13.47 mins</title></rect><rect fill="#EBEDF0" height="4" rx="1" ry="1" width="4" x="118.00000000000004" y="19.7"><title>2024-05-20</title></rect><rect fill="#67bf6c" height="4" rx="1" ry="1" width="4" x="118.00000000000004" y="25.1"><title>2024-05-21 65.6 mins</title></rect><rect fill="#66be6b" height="4" rx="1" ry="1" width="4" x="118.00000000000004" y="30.5"><title>2024-05-22 80.13 mins</title></rect><rect fill="#a9e6ab" height="4" rx="1" ry="1" width="4" x="118.00000000000004" y="35.9"><title>2024-05-23 20.55 mins</title></rect><rect fill="#67bf6c" height="4" rx="1" ry="1" width="4" x="118.00000000000004" y="41.300000000000004"><title>2024-05-24 57.72 mins</title></rect><rect fill="#EBEDF0" height="4" rx="1" ry="1" width="4" x="118.00000000000004" y="46.699999999999996"><title>2024-05-25</title></rect><rect fill="#a8e5aa" height="4" rx="1" ry="1" width="4" x="118.00000000000004" y="52.1"><title>2024-05-26 29.08 mins</title></rect><rect fill="#a8e5aa" height="4" rx="1" ry="1" width="4" x="123.40000000000005" y="19.7"><title>2024-05-27 26.75 mins</title></rect><rect fill="#66be6b" height="4" rx="1" ry="1" width="4" x="123.40000000000005" y="25.1"><title>2024-05-28 80.82 mins</title></rect><rect fill="#66be6b" height="4" rx="1" ry="1" width="4" x="123.40000000000005" y="30.5"><title>2024-05-29 90.08 mins</title></rect><rect fill="#549F57" height="4" rx="1" ry="1" width="4" x="123.40000000000005" y="35.9"><title>2024-05-30 181.53 mins</title></rect><rect fill="#aae6ac" height="4" rx="1" ry="1" width="4" x="123.40000000000005" y="41.300000000000004"><title>2024-05-31 17.12 mins</title></rect><rect fill="#ace7ae" height="4" rx="1" ry="1" width="4" x="123.40000000000005" y="46.699999999999996"><title>2024-06-01 3.0 mins</title></rect><rect fill="#ace7ae" height="4" rx="1" ry="1" width="4" x="123.40000000000005" y="52.1"><title>2024-06-02 0.57 mins</title></rect><text fill="#000000" style="font-size:2.5px; font-family:Arial" x="128.80000000000004" y="18.3">Jun</text><rect fill="#549F57" height="4" rx="1" ry="1" width="4" x="128.80000000000004" y="19.7"><title>2024-06-03 170.28 mins</title></rect><rect fill="#549F57" height="4" rx="1" ry="1" width="4" x="128.80000000000004" y="25.1"><title>2024-06-04 156.9 mins</title></rect><rect fill="#549F57" height="4" rx="1" ry="1" width="4" x="128.80000000000004" y="30.5"><title>2024-06-05 110.85 mins</title></rect><rect fill="#67bf6c" height="4" rx="1" ry="1" width="4" x="128.80000000000004" y="35.9"><title>2024-06-06 60.18 mins</title></rect><rect fill="#67bf6b" height="4" rx="1" ry="1" width="4" x="128.80000000000004" y="41.300000000000004"><title>2024-06-07 67.67 mins</title></rect><rect fill="#67bf6c" height="4" rx="1" ry="1" width="4" x="128.80000000000004" y="46.699999999999996"><title>2024-06-08 61.17 mins</title></rect><rect fill="#67bf6c" height="4" rx="1" ry="1" width="4" x="128.80000000000004" y="52.1"><title>2024-06-09 49.65 mins</title></rect><rect fill="#549F57" height="4" rx="1" ry="1" width="4" x="134.20000000000005" y="19.7"><title>2024-06-10 194.17 mins</title></rect><rect fill="#549F57" height="4" rx="1" ry="1" width="4" x="134.20000000000005" y="25.1"><title>2024-06-11 107.07 mins</title></rect><rect fill="#549F57" height="4" rx="1" ry="1" width="4" x="134.20000000000005" y="30.5"><title>2024-06-12 213.35 mins</title></rect><rect fill="#67be6b" height="4" rx="1" ry="1" width="4" x="134.20000000000005" y="35.9"><title>2024-06-13 70.77 mins</title></rect><rect fill="#a8e5aa" height="4" rx="1" ry="1" width="4" x="134.20000000000005" y="41.300000000000004"><title>2024-06-14 28.43 mins</title></rect><rect fill="#67bf6b" height="4" rx="1" ry="1" width="4" x="134.20000000000005" y="46.699999999999996"><title>2024-06-15 69.3 mins</title></rect><rect fill="#abe7ad" height="4" rx="1" ry="1" width="4" x="134.20000000000005" y="52.1"><title>2024-06-16 5.13 mins</title></rect><rect fill="#EBEDF0" height="4" rx="1" ry="1" width="4" x="139.60000000000005" y="19.7"><title>2024-06-17</title></rect><rect fill="#abe7ad" height="4" rx="1" ry="1" width="4" x="139.60000000000005" y="25.1"><title>2024-06-18 3.98 mins</title></rect><rect fill="#a7e5a9" height="4" rx="1" ry="1" width="4" x="139.60000000000005" y="30.5"><title>2024-06-19 37.55 mins</title></rect><rect fill="#a9e6ab" height="4" rx="1" ry="1" width="4" x="139.60000000000005" y="35.9"><title>2024-06-20 22.63 mins</title></rect><rect fill="#aae6ac" height="4" rx="1" ry="1" width="4" x="139.60000000000005" y="41.300000000000004"><title>2024-06-21 17.0 mins</title></rect><rect fill="#EBEDF0" height="4" rx="1" ry="1" width="4" x="139.60000000000005" y="46.699999999999996"><title>2024-06-22</title></rect><rect fill="#EBEDF0" height="4" rx="1" ry="1" width="4" x="139.60000000000005" y="52.1"><title>2024-06-23</title></rect><rect fill="#ace7ae" height="4" rx="1" ry="1" width="4" x="145.00000000000006" y="19.7"><title>2024-06-24 2.15 mins</title></rect><rect fill="#EBEDF0" height="4" rx="1" ry="1" width="4" x="145.00000000000006" y="25.1"><title>2024-06-25</title></rect><rect fill="#abe7ad" height="4" rx="1" ry="1" width="4" x="145.00000000000006" y="30.5"><title>2024-06-26 3.68 mins</title></rect><rect fill="#ace7ae" height="4" rx="1" ry="1" width="4" x="145.00000000000006" y="35.9"><title>2024-06-27 2.57 mins</title></rect><rect fill="#aae6ac" height="4" rx="1" ry="1" width="4" x="145.00000000000006" y="41.300000000000004"><title>2024-06-28 12.02 mins</title></rect><rect fill="#EBEDF0" height="4" rx="1" ry="1" width="4" x="145.00000000000006" y="46.699999999999996"><title>2024-06-29</title></rect><rect fill="#EBEDF0" height="4" rx="1" ry="1" width="4" x="145.00000000000006" y="52.1"><title>2024-06-30</title></rect><text fill="#000000" style="font-size:2.5px; font-family:Arial" x="150.40000000000006" y="18.3">Jul</text><rect fill="#ace7ae" height="4" rx="1" ry="1" width="4" x="150.40000000000006" y="19.7"><title>2024-07-01 0.15 mins</title></rect><rect fill="#EBEDF0" height="4" rx="1" ry="1" width="4" x="150.40000000000006" y="25.1"><title>2024-07-02</title></rect><rect fill="#EBEDF0" height="4" rx="1" ry="1" width="4" x="150.40000000000006" y="30.5"><title>2024-07-03</title></rect><rect fill="#abe6ad" height="4" rx="1" ry="1" width="4" x="150.40000000000006" y="35.9"><title>2024-07-04 9.18 mins</title></rect><rect fill="#a8e5aa" height="4" rx="1" ry="1" width="4" x="150.40000000000006" y="41.300000000000004"><title>2024-07-05 28.7 mins</title></rect><rect fill="#aae6ac" height="4" rx="1" ry="1" width="4" x="150.40000000000006" y="46.699999999999996"><title>2024-07-06 11.63 mins</title></rect><rect fill="#a8e5aa" height="4" rx="1" ry="1" width="4" x="150.40000000000006" y="52.1"><title>2024-07-07 27.37 mins</title></rect><rect fill="#66be6b" height="4" rx="1" ry="1" width="4" x="155.80000000000007" y="19.7"><title>2024-07-08 78.98 mins</title></rect><rect fill="#a9e6ab" height="4" rx="1" ry="1" width="4" x="155.80000000000007" y="25.1"><title>2024-07-09 20.6 mins</title></rect><rect fill="#a6e4a8" height="4" rx="1" ry="1" width="4" x="155.80000000000007" y="30.5"><title>2024-07-10 42.33 mins</title></rect><rect fill="#aae6ac" height="4" rx="1" ry="1" width="4" x="155.80000000000007" y="35.9"><title>2024-07-11 13.82 mins</title></rect><rect fill="#a9e6ac" height="4" rx="1" ry="1" width="4" x="155.80000000000007" y="41.300000000000004"><title>2024-07-12 17.85 mins</title></rect><rect fill="#abe7ad" height="4" rx="1" ry="1" width="4" x="155.80000000000007" y="46.699999999999996"><title>2024-07-13 5.35 mins</title></rect><rect fill="#ace7ae" height="4" rx="1" ry="1" width="4" x="155.80000000000007" y="52.1"><title>2024-07-14 1.6 mins</title></rect><rect fill="#EBEDF0" height="4" rx="1" ry="1" width="4" x="161.20000000000007" y="19.7"><title>2024-07-15</title></rect><rect fill="#67bf6c" height="4" rx="1" ry="1" width="4" x="161.20000000000007" y="25.1"><title>2024-07-16 47.23 mins</title></rect><rect fill="#ace7ae" height="4" rx="1" ry="1" width="4" x="161.20000000000007" y="30.5"><title>2024-07-17 1.2 mins</title></rect><rect fill="#aae6ac" height="4" rx="1" ry="1" width="4" x="161.20000000000007" y="35.9"><title>2024-07-18 17.02 mins</title></rect><rect fill="#a8e5aa" height="4" rx="1" ry="1" width="4" x="161.20000000000007" y="41.300000000000004"><title>2024-07-19 26.83 mins</title></rect><rect fill="#EBEDF0" height="4" rx="1" ry="1" width="4" x="161.20000000000007" y="46.699999999999996"><title>2024-07-20</title></rect><rect fill="#a9e6ab" height="4" rx="1" ry="1" width="4" x="161.20000000000007" y="52.1"><title>2024-07-21 22.32 mins</title></rect><rect fill="#66be6b" height="4" rx="1" ry="1" width="4" x="166.60000000000008" y="19.7"><title>2024-07-22 80.33 mins</title></rect><rect fill="#67bf6c" height="4" rx="1" ry="1" width="4" x="166.60000000000008" y="25.1"><title>2024-07-23 46.4 mins</title></rect><rect fill="#67bf6c" height="4" rx="1" ry="1" width="4" x="166.60000000000008" y="30.5"><title>2024-07-24 60.77 mins</title></rect><rect fill="#66be6b" height="4" rx="1" ry="1" width="4" x="166.60000000000008" y="35.9"><title>2024-07-25 74.17 mins</title></rect><rect fill="#549F57" height="4" rx="1" ry="1" width="4" x="166.60000000000008" y="41.300000000000004"><title>2024-07-26 106.62 mins</title></rect><rect fill="#67bf6c" height="4" rx="1" ry="1" width="4" x="166.60000000000008" y="46.699999999999996"><title>2024-07-27 44.75 mins</title></rect><rect fill="#EBEDF0" height="4" rx="1" ry="1" width="4" x="166.60000000000008" y="52.1"><title>2024-07-28</title></rect><rect fill="#ace7ae" height="4" rx="1" ry="1" width="4" x="172.00000000000009" y="19.7"><title>2024-07-29 2.65 mins</title></rect><rect fill="#ace7ae" height="4" rx="1" ry="1" width="4" x="172.00000000000009" y="25.1"><title>2024-07-30 0.07 mins</title></rect><rect fill="#aae6ac" height="4" rx="1" ry="1" width="4" x="172.00000000000009" y="30.5"><title>2024-07-31 16.87 mins</title></rect><rect fill="#aae6ac" height="4" rx="1" ry="1" width="4" x="172.00000000000009" y="35.9"><title>2024-08-01 16.6 mins</title></rect><rect fill="#aae6ac" height="4" rx="1" ry="1" width="4" x="172.00000000000009" y="41.300000000000004"><title>2024-08-02 10.93 mins</title></rect><rect fill="#EBEDF0" height="4" rx="1" ry="1" width="4" x="172.00000000000009" y="46.699999999999996"><title>2024-08-03</title></rect><rect fill="#EBEDF0" height="4" rx="1" ry="1" width="4" x="172.00000000000009" y="52.1"><title>2024-08-04</title></rect><text fill="#000000" style="font-size:2.5px; font-family:Arial" x="177.4000000000001" y="18.3">Aug</text><rect fill="#EBEDF0" height="4" rx="1" ry="1" width="4" x="177.4000000000001" y="19.7"><title>2024-08-05</title></rect><rect fill="#EBEDF0" height="4" rx="1" ry="1" width="4" x="177.4000000000001" y="25.1"><title>2024-08-06</title></rect><rect fill="#EBEDF0" height="4" rx="1" ry="1" width="4" x="177.4000000000001" y="30.5"><title>2024-08-07</title></rect><rect fill="#a6e4a8" height="4" rx="1" ry="1" width="4" x="177.4000000000001" y="35.9"><title>2024-08-08 40.73 mins</title></rect><rect fill="#549F57" height="4" rx="1" ry="1" width="4" x="177.4000000000001" y="41.300000000000004"><title>2024-08-09 129.67 mins</title></rect><rect fill="#67bf6c" height="4" rx="1" ry="1" width="4" x="177.4000000000001" y="46.699999999999996"><title>2024-08-10 55.33 mins</title></rect><rect fill="#a9e6ab" height="4" rx="1" ry="1" width="4" x="177.4000000000001" y="52.1"><title>2024-08-11 22.43 mins</title></rect><rect fill="#549F57" height="4" rx="1" ry="1" width="4" x="182.8000000000001" y="19.7"><title>2024-08-12 164.83 mins</title></rect><rect fill="#549F57" height="4" rx="1" ry="1" width="4" x="182.8000000000001" y="25.1"><title>2024-08-13 123.7 mins</title></rect><rect fill="#66be6b" height="4" rx="1" ry="1" width="4" x="182.8000000000001" y="30.5"><title>2024-08-14 73.58 mins</title></rect><rect fill="#549F57" height="4" rx="1" ry="1" width="4" x="182.8000000000001" y="35.9"><title>2024-08-15 115.45 mins</title></rect><rect fill="#67bf6c" height="4" rx="1" ry="1" width="4" x="182.8000000000001" y="41.300000000000004"><title>2024-08-16 62.75 mins</title></rect><rect fill="#abe6ad" height="4" rx="1" ry="1" width="4" x="182.8000000000001" y="46.699999999999996"><title>2024-08-17 9.73 mins</title></rect><rect fill="#a8e5aa" height="4" rx="1" ry="1" width="4" x="182.8000000000001" y="52.1"><title>2024-08-18 27.17 mins</title></rect><rect fill="#549F57" height="4" rx="1" ry="1" width="4" x="188.2000000000001" y="19.7"><title>2024-08-19 157.62 mins</title></rect><rect fill="#549F57" height="4" rx="1" ry="1" width="4" x="188.2000000000001" y="25.1"><title>2024-08-20 196.35 mins</title></rect><rect fill="#549F57" height="4" rx="1" ry="1" width="4" x="188.2000000000001" y="30.5"><title>2024-08-21 114.97 mins</title></rect><rect fill="#66be6b" height="4" rx="1" ry="1" width="4" x="188.2000000000001" y="35.9"><title>2024-08-22 92.12 mins</title></rect><rect fill="#67bf6c" height="4" rx="1" ry="1" width="4" x="188.2000000000001" y="41.300000000000004"><title>2024-08-23 53.52 mins</title></rect><rect fill="#abe7ad" height="4" rx="1" ry="1" width="4" x="188.2000000000001" y="46.699999999999996"><title>2024-08-24 7.6 mins</title></rect><rect fill="#a6e4a8" height="4" rx="1" ry="1" width="4" x="188.2000000000001" y="52.1"><title>2024-08-25 44.32 mins</title></rect><rect fill="#abe6ad" height="4" rx="1" ry="1" width="4" x="193.6000000000001" y="19.7"><title>2024-08-26 8.18 mins</title></rect><rect fill="#66be6b" height="4" rx="1" ry="1" width="4" x="193.6000000000001" y="25.1"><title>2024-08-27 93.18 mins</title></rect><rect fill="#66be6b" height="4" rx="1" ry="1" width="4" x="193.6000000000001" y="30.5"><title>2024-08-28 79.42 mins</title></rect><rect fill="#abe7ad" height="4" rx="1" ry="1" width="4" x="193.6000000000001" y="35.9"><title>2024-08-29 4.77 mins</title></rect><rect fill="#ace7ae" height="4" rx="1" ry="1" width="4" x="193.6000000000001" y="41.300000000000004"><title>2024-08-30 2.8 mins</title></rect><rect fill="#a9e6ab" height="4" rx="1" ry="1" width="4" x="193.6000000000001" y="46.699999999999996"><title>2024-08-31 18.6 mins</title></rect><rect fill="#549F57" height="4" rx="1" ry="1" width="4" x="193.6000000000001" y="52.1"><title>2024-09-01 155.78 mins</title></rect><text fill="#000000" style="font-size:2.5px; font-family:Arial" x="199.0000000000001" y="18.3">Sep</text><rect fill="#549F57" height="4" rx="1" ry="1" width="4" x="199.0000000000001" y="19.7"><title>2024-09-02 167.53 mins</title></rect><rect fill="#549F57" height="4" rx="1" ry="1" width="4" x="199.0000000000001" y="25.1"><title>2024-09-03 140.05 mins</title></rect><rect fill="#549F57" height="4" rx="1" ry="1" width="4" x="199.0000000000001" y="30.5"><title>2024-09-04 248.35 mins</title></rect><rect fill="#66be6b" height="4" rx="1" ry="1" width="4" x="199.0000000000001" y="35.9"><title>2024-09-05 93.23 mins</title></rect><rect fill="#549F57" height="4" rx="1" ry="1" width="4" x="199.0000000000001" y="41.300000000000004"><title>2024-09-06 234.03 mins</title></rect><rect fill="#549F57" height="4" rx="1" ry="1" width="4" x="199.0000000000001" y="46.699999999999996"><title>2024-09-07 138.5 mins</title></rect><rect fill="#549F57" height="4" rx="1" ry="1" width="4" x="199.0000000000001" y="52.1"><title>2024-09-08 212.62 mins</title></rect><rect fill="#549F57" height="4" rx="1" ry="1" width="4" x="204.40000000000012" y="19.7"><title>2024-09-09 231.62 mins</title></rect><rect fill="#65bd6a" height="4" rx="1" ry="1" width="4" x="204.40000000000012" y="25.1"><title>2024-09-10 101.85 mins</title></rect><rect fill="#66be6b" height="4" rx="1" ry="1" width="4" x="204.40000000000012" y="30.5"><title>2024-09-11 89.43 mins</title></rect><rect fill="#66be6b" height="4" rx="1" ry="1" width="4" x="204.40000000000012" y="35.9"><title>2024-09-12 78.4 mins</title></rect><rect fill="#67bf6b" height="4" rx="1" ry="1" width="4" x="204.40000000000012" y="41.300000000000004"><title>2024-09-13 70.28 mins</title></rect><rect fill="#549F57" height="4" rx="1" ry="1" width="4" x="204.40000000000012" y="46.699999999999996"><title>2024-09-14 509.82 mins</title></rect><rect fill="#abe7ad" height="4" rx="1" ry="1" width="4" x="204.40000000000012" y="52.1"><title>2024-09-15 6.08 mins</title></rect><rect fill="#abe6ad" height="4" rx="1" ry="1" width="4" x="209.80000000000013" y="19.7"><title>2024-09-16 10.52 mins</title></rect><rect fill="#aae6ac" height="4" rx="1" ry="1" width="4" x="209.80000000000013" y="25.1"><title>2024-09-17 16.43 mins</title></rect><rect fill="#aae6ac" height="4" rx="1" ry="1" width="4" x="209.80000000000013" y="30.5"><title>2024-09-18 13.43 mins</title></rect><rect fill="#a6e4a8" height="4" rx="1" ry="1" width="4" x="209.80000000000013" y="35.9"><title>2024-09-19 43.35 mins</title></rect><rect fill="#aae6ac" height="4" rx="1" ry="1" width="4" x="209.80000000000013" y="41.300000000000004"><title>2024-09-20 11.67 mins</title></rect><rect fill="#549F57" height="4" rx="1" ry="1" width="4" x="209.80000000000013" y="46.699999999999996"><title>2024-09-21 150.58 mins</title></rect><rect fill="#549F57" height="4" rx="1" ry="1" width="4" x="209.80000000000013" y="52.1"><title>2024-09-22 130.1 mins</title></rect><rect fill="#549F57" height="4" rx="1" ry="1" width="4" x="215.20000000000013" y="19.7"><title>2024-09-23 164.03 mins</title></rect><rect fill="#549F57" height="4" rx="1" ry="1" width="4" x="215.20000000000013" y="25.1"><title>2024-09-24 121.93 mins</title></rect><rect fill="#67bf6b" height="4" rx="1" ry="1" width="4" x="215.20000000000013" y="30.5"><title>2024-09-25 70.15 mins</title></rect><rect fill="#67bf6c" height="4" rx="1" ry="1" width="4" x="215.20000000000013" y="35.9"><title>2024-09-26 50.1 mins</title></rect><rect fill="#a7e5a9" height="4" rx="1" ry="1" width="4" x="215.20000000000013" y="41.300000000000004"><title>2024-09-27 36.78 mins</title></rect><rect fill="#abe7ad" height="4" rx="1" ry="1" width="4" x="215.20000000000013" y="46.699999999999996"><title>2024-09-28 6.07 mins</title></rect><rect fill="#a9e6ab" height="4" rx="1" ry="1" width="4" x="215.20000000000013" y="52.1"><title>2024-09-29 19.28 mins</title></rect><rect fill="#549F57" height="4" rx="1" ry="1" width="4" x="220.60000000000014" y="19.7"><title>2024-09-30 160.72 mins</title></rect><rect fill="#549F57" height="4" rx="1" ry="1" width="4" x="220.60000000000014" y="25.1"><title>2024-10-01 352.48 mins</title></rect><rect fill="#ace7ae" height="4" rx="1" ry="1" width="4" x="220.60000000000014" y="30.5"><title>2024-10-02 2.43 mins</title></rect><rect fill="#ace7ae" height="4" rx="1" ry="1" width="4" x="220.60000000000014" y="35.9"><title>2024-10-03 0.08 mins</title></rect><rect fill="#ace7ae" height="4" rx="1" ry="1" width="4" x="220.60000000000014" y="41.300000000000004"><title>2024-10-04 2.65 mins</title></rect><rect fill="#ace7ae" height="4" rx="1" ry="1" width="4" x="220.60000000000014" y="46.699999999999996"><title>2024-10-05 2.32 mins</title></rect><rect fill="#abe7ad" height="4" rx="1" ry="1" width="4" x="220.60000000000014" y="52.1"><title>2024-10-06 4.82 mins</title></rect><text fill="#000000" style="font-size:2.5px; font-family:Arial" x="226.00000000000014" y="18.3">Oct</text><rect fill="#549F57" height="4" rx="1" ry="1" width="4" x="226.00000000000014" y="19.7"><title>2024-10-07 780.43 mins</title></rect><rect fill="#549F57" height="4" rx="1" ry="1" width="4" x="226.00000000000014" y="25.1"><title>2024-10-08 297.8 mins</title></rect><rect fill="#abe7ad" height="4" rx="1" ry="1" width="4" x="226.00000000000014" y="30.5"><title>2024-10-09 5.83 mins</title></rect><rect fill="#EBEDF0" height="4" rx="1" ry="1" width="4" x="226.00000000000014" y="35.9"><title>2024-10-10</title></rect><rect fill="#EBEDF0" height="4" rx="1" ry="1" width="4" x="226.00000000000014" y="41.300000000000004"><title>2024-10-11</title></rect><rect fill="#EBEDF0" height="4" rx="1" ry="1" width="4" x="226.00000000000014" y="46.699999999999996"><title>2024-10-12</title></rect><rect fill="#EBEDF0" height="4" rx="1" ry="1" width="4" x="226.00000000000014" y="52.1"><title>2024-10-13</title></rect><rect fill="#EBEDF0" height="4" rx="1" ry="1" width="4" x="231.40000000000015" y="19.7"><title>2024-10-14</title></rect><rect fill="#EBEDF0" height="4" rx="1" ry="1" width="4" x="231.40000000000015" y="25.1"><title>2024-10-15</title></rect><rect fill="#EBEDF0" height="4" rx="1" ry="1" width="4" x="231.40000000000015" y="30.5"><title>2024-10-16</title></rect><rect fill="#EBEDF0" height="4" rx="1" ry="1" width="4" x="231.40000000000015" y="35.9"><title>2024-10-17</title></rect><rect fill="#EBEDF0" height="4" rx="1" ry="1" width="4" x="231.40000000000015" y="41.300000000000004"><title>2024-10-18</title></rect><rect fill="#EBEDF0" height="4" rx="1" ry="1" width="4" x="231.40000000000015" y="46.699999999999996"><title>2024-10-19</title></rect><rect fill="#EBEDF0" height="4" rx="1" ry="1" width="4" x="231.40000000000015" y="52.1"><title>2024-10-20</title></rect><rect fill="#EBEDF0" height="4" rx="1" ry="1" width="4" x="236.80000000000015" y="19.7"><title>2024-10-21</title></rect><rect fill="#EBEDF0" height="4" rx="1" ry="1" width="4" x="236.80000000000015" y="25.1"><title>2024-10-22</title></rect><rect fill="#EBEDF0" height="4" rx="1" ry="1" width="4" x="236.80000000000015" y="30.5"><title>2024-10-23</title></rect><rect fill="#EBEDF0" height="4" rx="1" ry="1" width="4" x="236.80000000000015" y="35.9"><title>2024-10-24</title></rect><rect fill="#EBEDF0" height="4" rx="1" ry="1" width="4" x="236.80000000000015" y="41.300000000000004"><title>2024-10-25</title></rect><rect fill="#EBEDF0" height="4" rx="1" ry="1" width="4" x="236.80000000000015" y="46.699999999999996"><title>2024-10-26</title></rect><rect fill="#EBEDF0" height="4" rx="1" ry="1" width="4" x="236.80000000000015" y="52.1"><title>2024-10-27</title></rect><rect fill="#EBEDF0" height="4" rx="1" ry="1" width="4" x="242.20000000000016" y="19.7"><title>2024-10-28</title></rect><rect fill="#EBEDF0" height="4" rx="1" ry="1" width="4" x="242.20000000000016" y="25.1"><title>2024-10-29</title></rect><rect fill="#EBEDF0" height="4" rx="1" ry="1" width="4" x="242.20000000000016" y="30.5"><title>2024-10-30</title></rect><rect fill="#EBEDF0" height="4" rx="1" ry="1" width="4" x="242.20000000000016" y="35.9"><title>2024-10-31</title></rect><rect fill="#EBEDF0" height="4" rx="1" ry="1" width="4" x="242.20000000000016" y="41.300000000000004"><title>2024-11-01</title></rect><rect fill="#EBEDF0" height="4" rx="1" ry="1" width="4" x="242.20000000000016" y="46.699999999999996"><title>2024-11-02</title></rect><rect fill="#EBEDF0" height="4" rx="1" ry="1" width="4" x="242.20000000000016" y="52.1"><title>2024-11-03</title></rect><text fill="#000000" style="font-size:2.5px; font-family:Arial" x="247.60000000000016" y="18.3">Nov</text><rect fill="#EBEDF0" height="4" rx="1" ry="1" width="4" x="247.60000000000016" y="19.7"><title>2024-11-04</title></rect><rect fill="#EBEDF0" height="4" rx="1" ry="1" width="4" x="247.60000000000016" y="25.1"><title>2024-11-05</title></rect><rect fill="#EBEDF0" height="4" rx="1" ry="1" width="4" x="247.60000000000016" y="30.5"><title>2024-11-06</title></rect><rect fill="#EBEDF0" height="4" rx="1" ry="1" width="4" x="247.60000000000016" y="35.9"><title>2024-11-07</title></rect><rect fill="#EBEDF0" height="4" rx="1" ry="1" width="4" x="247.60000000000016" y="41.300000000000004"><title>2024-11-08</title></rect><rect fill="#EBEDF0" height="4" rx="1" ry="1" width="4" x="247.60000000000016" y="46.699999999999996"><title>2024-11-09</title></rect><rect fill="#EBEDF0" height="4" rx="1" ry="1" width="4" x="247.60000000000016" y="52.1"><title>2024-11-10</title></rect><rect fill="#EBEDF0" height="4" rx="1" ry="1" width="4" x="253.00000000000017" y="19.7"><title>2024-11-11</title></rect><rect fill="#EBEDF0" height="4" rx="1" ry="1" width="4" x="253.00000000000017" y="25.1"><title>2024-11-12</title></rect><rect fill="#EBEDF0" height="4" rx="1" ry="1" width="4" x="253.00000000000017" y="30.5"><title>2024-11-13</title></rect><rect fill="#EBEDF0" height="4" rx="1" ry="1" width="4" x="253.00000000000017" y="35.9"><title>2024-11-14</title></rect><rect fill="#EBEDF0" height="4" rx="1" ry="1" width="4" x="253.00000000000017" y="41.300000000000004"><title>2024-11-15</title></rect><rect fill="#EBEDF0" height="4" rx="1" ry="1" width="4" x="253.00000000000017" y="46.699999999999996"><title>2024-11-16</title></rect><rect fill="#EBEDF0" height="4" rx="1" ry="1" width="4" x="253.00000000000017" y="52.1"><title>2024-11-17</title></rect><rect fill="#EBEDF0" height="4" rx="1" ry="1" width="4" x="258.40000000000015" y="19.7"><title>2024-11-18</title></rect><rect fill="#EBEDF0" height="4" rx="1" ry="1" width="4" x="258.40000000000015" y="25.1"><title>2024-11-19</title></rect><rect fill="#EBEDF0" height="4" rx="1" ry="1" width="4" x="258.40000000000015" y="30.5"><title>2024-11-20</title></rect><rect fill="#EBEDF0" height="4" rx="1" ry="1" width="4" x="258.40000000000015" y="35.9"><title>2024-11-21</title></rect><rect fill="#EBEDF0" height="4" rx="1" ry="1" width="4" x="258.40000000000015" y="41.300000000000004"><title>2024-11-22</title></rect><rect fill="#EBEDF0" height="4" rx="1" ry="1" width="4" x="258.40000000000015" y="46.699999999999996"><title>2024-11-23</title></rect><rect fill="#EBEDF0" height="4" rx="1" ry="1" width="4" x="258.40000000000015" y="52.1"><title>2024-11-24</title></rect><rect fill="#EBEDF0" height="4" rx="1" ry="1" width="4" x="263.8000000000001" y="19.7"><title>2024-11-25</title></rect><rect fill="#EBEDF0" height="4" rx="1" ry="1" width="4" x="263.8000000000001" y="25.1"><title>2024-11-26</title></rect><rect fill="#EBEDF0" height="4" rx="1" ry="1" width="4" x="263.8000000000001" y="30.5"><title>2024-11-27</title></rect><rect fill="#EBEDF0" height="4" rx="1" ry="1" width="4" x="263.8000000000001" y="35.9"><title>2024-11-28</title></rect><rect fill="#EBEDF0" height="4" rx="1" ry="1" width="4" x="263.8000000000001" y="41.300000000000004"><title>2024-11-29</title></rect><rect fill="#EBEDF0" height="4" rx="1" ry="1" width="4" x="263.8000000000001" y="46.699999999999996"><title>2024-11-30</title></rect><rect fill="#EBEDF0" height="4" rx="1" ry="1" width="4" x="263.8000000000001" y="52.1"><title>2024-12-01</title></rect><text fill="#000000" style="font-size:2.5px; font-family:Arial" x="269.2000000000001" y="18.3">Dec</text><rect fill="#EBEDF0" height="4" rx="1" ry="1" width="4" x="269.2000000000001" y="19.7"><title>2024-12-02</title></rect><rect fill="#EBEDF0" height="4" rx="1" ry="1" width="4" x="269.2000000000001" y="25.1"><title>2024-12-03</title></rect><rect fill="#EBEDF0" height="4" rx="1" ry="1" width="4" x="269.2000000000001" y="30.5"><title>2024-12-04</title></rect><rect fill="#EBEDF0" height="4" rx="1" ry="1" width="4" x="269.2000000000001" y="35.9"><title>2024-12-05</title></rect><rect fill="#EBEDF0" height="4" rx="1" ry="1" width="4" x="269.2000000000001" y="41.300000000000004"><title>2024-12-06</title></rect><rect fill="#EBEDF0" height="4" rx="1" ry="1" width="4" x="269.2000000000001" y="46.699999999999996"><title>2024-12-07</title></rect><rect fill="#EBEDF0" height="4" rx="1" ry="1" width="4" x="269.2000000000001" y="52.1"><title>2024-12-08</title></rect><rect fill="#EBEDF0" height="4" rx="1" ry="1" width="4" x="274.6000000000001" y="19.7"><title>2024-12-09</title></rect><rect fill="#EBEDF0" height="4" rx="1" ry="1" width="4" x="274.6000000000001" y="25.1"><title>2024-12-10</title></rect><rect fill="#EBEDF0" height="4" rx="1" ry="1" width="4" x="274.6000000000001" y="30.5"><title>2024-12-11</title></rect><rect fill="#EBEDF0" height="4" rx="1" ry="1" width="4" x="274.6000000000001" y="35.9"><title>2024-12-12</title></rect><rect fill="#EBEDF0" height="4" rx="1" ry="1" width="4" x="274.6000000000001" y="41.300000000000004"><title>2024-12-13</title></rect><rect fill="#EBEDF0" height="4" rx="1" ry="1" width="4" x="274.6000000000001" y="46.699999999999996"><title>2024-12-14</title></rect><rect fill="#EBEDF0" height="4" rx="1" ry="1" width="4" x="274.6000000000001" y="52.1"><title>2024-12-15</title></rect><rect fill="#EBEDF0" height="4" rx="1" ry="1" width="4" x="280.00000000000006" y="19.7"><title>2024-12-16</title></rect><rect fill="#EBEDF0" height="4" rx="1" ry="1" width="4" x="280.00000000000006" y="25.1"><title>2024-12-17</title></rect><rect fill="#EBEDF0" height="4" rx="1" ry="1" width="4" x="280.00000000000006" y="30.5"><title>2024-12-18</title></rect><rect fill="#EBEDF0" height="4" rx="1" ry="1" width="4" x="280.00000000000006" y="35.9"><title>2024-12-19</title></rect><rect fill="#EBEDF0" height="4" rx="1" ry="1" width="4" x="280.00000000000006" y="41.300000000000004"><title>2024-12-20</title></rect><rect fill="#EBEDF0" height="4" rx="1" ry="1" width="4" x="280.00000000000006" y="46.699999999999996"><title>2024-12-21</title></rect><rect fill="#EBEDF0" height="4" rx="1" ry="1" width="4" x="280.00000000000006" y="52.1"><title>2024-12-22</title></rect><rect fill="#EBEDF0" height="4" rx="1" ry="1" width="4" x="285.40000000000003" y="19.7"><title>2024-12-23</title></rect><rect fill="#EBEDF0" height="4" rx="1" ry="1" width="4" x="285.40000000000003" y="25.1"><title>2024-12-24</title></rect><rect fill="#EBEDF0" height="4" rx="1" ry="1" width="4" x="285.40000000000003" y="30.5"><title>2024-12-25</title></rect><rect fill="#EBEDF0" height="4" rx="1" ry="1" width="4" x="285.40000000000003" y="35.9"><title>2024-12-26</title></rect><rect fill="#EBEDF0" height="4" rx="1" ry="1" width="4" x="285.40000000000003" y="41.300000000000004"><title>2024-12-27</title></rect><rect fill="#EBEDF0" height="4" rx="1" ry="1" width="4" x="285.40000000000003" y="46.699999999999996"><title>2024-12-28</title></rect><rect fill="#EBEDF0" height="4" rx="1" ry="1" width="4" x="285.40000000000003" y="52.1"><title>2024-12-29</title></rect><rect fill="#EBEDF0" height="4" rx="1" ry="1" width="4" x="290.8" y="19.7"><title>2024-12-30</title></rect><rect fill="#EBEDF0" height="4" rx="1" ry="1" width="4" x="290.8" y="25.1"><title>2024-12-31</title></rect></svg>